<mxfile>
    <diagram id="LNP9S4-BVpzVc-00VTwb" name="Page-1">
        <mxGraphModel dx="718" dy="603" grid="1" gridSize="10" guides="1" tooltips="1" connect="1" arrows="1" fold="1" page="1" pageScale="1" pageWidth="850" pageHeight="1100" math="0" shadow="0">
            <root>
                <mxCell id="0"/>
                <mxCell id="1" parent="0"/>
                <mxCell id="3" value="Browser" style="rounded=0;whiteSpace=wrap;html=1;shadow=0;sketch=0;fillColor=#f5f5f5;strokeColor=#666666;fontColor=#333333;" vertex="1" parent="1">
                    <mxGeometry x="160" y="720" width="120" height="40" as="geometry"/>
                </mxCell>
                <mxCell id="8" value="2014" style="shape=ext;double=1;rounded=0;whiteSpace=wrap;html=1;shadow=0;sketch=0;fillColor=#f5f5f5;strokeColor=#666666;fontColor=#333333;" vertex="1" parent="1">
                    <mxGeometry x="160" y="640" width="320" height="30" as="geometry"/>
                </mxCell>
                <mxCell id="16" value="Browser" style="rounded=0;whiteSpace=wrap;html=1;shadow=0;sketch=0;fillColor=#f5f5f5;strokeColor=#666666;fontColor=#333333;" vertex="1" parent="1">
                    <mxGeometry x="160" y="400" width="120" height="40" as="geometry"/>
                </mxCell>
                <mxCell id="17" value="2012" style="shape=ext;double=1;rounded=0;whiteSpace=wrap;html=1;shadow=0;sketch=0;fillColor=#f5f5f5;strokeColor=#666666;fontColor=#333333;" vertex="1" parent="1">
                    <mxGeometry x="160" y="320" width="320" height="30" as="geometry"/>
                </mxCell>
                <mxCell id="18" value="Bower" style="ellipse;shape=cloud;whiteSpace=wrap;html=1;shadow=0;sketch=0;fillColor=#f5f5f5;align=center;strokeColor=#666666;fontColor=#333333;" vertex="1" parent="1">
                    <mxGeometry x="290" y="400" width="60" height="40" as="geometry"/>
                </mxCell>
                <mxCell id="25" value="Browser" style="rounded=0;whiteSpace=wrap;html=1;shadow=0;sketch=0;fillColor=#f5f5f5;strokeColor=#666666;fontColor=#333333;" vertex="1" parent="1">
                    <mxGeometry x="160" y="80" width="120" height="40" as="geometry"/>
                </mxCell>
                <mxCell id="26" value="2010" style="shape=ext;double=1;rounded=0;whiteSpace=wrap;html=1;shadow=0;sketch=0;fillColor=#f5f5f5;strokeColor=#666666;fontColor=#333333;" vertex="1" parent="1">
                    <mxGeometry x="160" width="320" height="30" as="geometry"/>
                </mxCell>
                <mxCell id="30" value="AngularJS" style="html=1;whiteSpace=wrap;shape=isoCube2;backgroundOutline=1;isoAngle=15;shadow=0;sketch=0;fillColor=#f5f5f5;strokeColor=#666666;fontColor=#333333;" vertex="1" parent="1">
                    <mxGeometry x="290" y="50" width="60" height="70" as="geometry"/>
                </mxCell>
                <mxCell id="31" value="Browser" style="rounded=0;whiteSpace=wrap;html=1;shadow=0;sketch=0;fillColor=#f5f5f5;strokeColor=#666666;fontColor=#333333;" vertex="1" parent="1">
                    <mxGeometry x="160" y="560" width="120" height="40" as="geometry"/>
                </mxCell>
                <mxCell id="32" value="2013" style="shape=ext;double=1;rounded=0;whiteSpace=wrap;html=1;shadow=0;sketch=0;fillColor=#f5f5f5;strokeColor=#666666;fontColor=#333333;" vertex="1" parent="1">
                    <mxGeometry x="160" y="480" width="320" height="30" as="geometry"/>
                </mxCell>
                <mxCell id="33" value="npm" style="ellipse;shape=cloud;whiteSpace=wrap;html=1;shadow=0;sketch=0;fillColor=#f5f5f5;align=center;strokeColor=#666666;fontColor=#333333;" vertex="1" parent="1">
                    <mxGeometry x="290" y="560" width="60" height="40" as="geometry"/>
                </mxCell>
                <mxCell id="34" value="React" style="html=1;whiteSpace=wrap;shape=isoCube2;backgroundOutline=1;isoAngle=15;shadow=0;sketch=0;fillColor=#f5f5f5;strokeColor=#666666;fontColor=#333333;" vertex="1" parent="1">
                    <mxGeometry x="360" y="530" width="60" height="70" as="geometry"/>
                </mxCell>
                <mxCell id="35" value="Browser" style="rounded=0;whiteSpace=wrap;html=1;shadow=0;sketch=0;fillColor=#f5f5f5;strokeColor=#666666;fontColor=#333333;" vertex="1" parent="1">
                    <mxGeometry x="160" y="880" width="120" height="40" as="geometry"/>
                </mxCell>
                <mxCell id="36" value="2015" style="shape=ext;double=1;rounded=0;whiteSpace=wrap;html=1;shadow=0;sketch=0;fillColor=#f5f5f5;strokeColor=#666666;fontColor=#333333;" vertex="1" parent="1">
                    <mxGeometry x="160" y="800" width="320" height="30" as="geometry"/>
                </mxCell>
                <mxCell id="39" value="Redux" style="html=1;whiteSpace=wrap;shape=isoCube2;backgroundOutline=1;isoAngle=15;shadow=0;sketch=0;fillColor=#f5f5f5;strokeColor=#666666;fontColor=#333333;" vertex="1" parent="1">
                    <mxGeometry x="360" y="860" width="60" height="70" as="geometry"/>
                </mxCell>
                <mxCell id="40" value="Vue.js" style="html=1;whiteSpace=wrap;shape=isoCube2;backgroundOutline=1;isoAngle=15;shadow=0;sketch=0;fillColor=#f5f5f5;strokeColor=#666666;fontColor=#333333;" vertex="1" parent="1">
                    <mxGeometry x="360" y="690" width="60" height="70" as="geometry"/>
                </mxCell>
                <mxCell id="41" value="Browser" style="rounded=0;whiteSpace=wrap;html=1;shadow=0;sketch=0;fillColor=#f5f5f5;strokeColor=#666666;fontColor=#333333;" vertex="1" parent="1">
                    <mxGeometry x="160" y="1200" width="120" height="40" as="geometry"/>
                </mxCell>
                <mxCell id="42" value="2017" style="shape=ext;double=1;rounded=0;whiteSpace=wrap;html=1;shadow=0;sketch=0;fillColor=#f5f5f5;strokeColor=#666666;fontColor=#333333;" vertex="1" parent="1">
                    <mxGeometry x="160" y="1120" width="320" height="30" as="geometry"/>
                </mxCell>
                <mxCell id="44" value="Gatsby" style="html=1;whiteSpace=wrap;shape=isoCube2;backgroundOutline=1;isoAngle=15;shadow=0;sketch=0;fillColor=#f5f5f5;strokeColor=#666666;fontColor=#333333;" vertex="1" parent="1">
                    <mxGeometry x="360" y="1180" width="60" height="70" as="geometry"/>
                </mxCell>
                <mxCell id="45" value="GraphQL" style="html=1;whiteSpace=wrap;shape=isoCube2;backgroundOutline=1;isoAngle=15;shadow=0;sketch=0;fillColor=#f5f5f5;strokeColor=#666666;fontColor=#333333;" vertex="1" parent="1">
                    <mxGeometry x="430" y="860" width="60" height="70" as="geometry"/>
                </mxCell>
                <mxCell id="46" value="Browser" style="rounded=0;whiteSpace=wrap;html=1;shadow=0;sketch=0;fillColor=#f5f5f5;strokeColor=#666666;fontColor=#333333;" vertex="1" parent="1">
                    <mxGeometry x="160" y="1360" width="120" height="40" as="geometry"/>
                </mxCell>
                <mxCell id="47" value="2018" style="shape=ext;double=1;rounded=0;whiteSpace=wrap;html=1;shadow=0;sketch=0;fillColor=#f5f5f5;strokeColor=#666666;fontColor=#333333;" vertex="1" parent="1">
                    <mxGeometry x="160" y="1280" width="320" height="30" as="geometry"/>
                </mxCell>
                <mxCell id="49" value="Deno" style="html=1;whiteSpace=wrap;shape=isoCube2;backgroundOutline=1;isoAngle=15;shadow=0;sketch=0;fillColor=#f5f5f5;strokeColor=#666666;fontColor=#333333;" vertex="1" parent="1">
                    <mxGeometry x="360" y="1340" width="60" height="70" as="geometry"/>
                </mxCell>
                <mxCell id="50" value="&lt;font style=&quot;font-size: 11px&quot;&gt;Backbone.js&lt;/font&gt;" style="html=1;whiteSpace=wrap;shape=isoCube2;backgroundOutline=1;isoAngle=15;shadow=0;sketch=0;fillColor=#f5f5f5;strokeColor=#666666;fontColor=#333333;" vertex="1" parent="1">
                    <mxGeometry x="365" y="50" width="60" height="70" as="geometry"/>
                </mxCell>
                <mxCell id="55" value="Browser" style="rounded=0;whiteSpace=wrap;html=1;shadow=0;sketch=0;fillColor=#f5f5f5;strokeColor=#666666;fontColor=#333333;" vertex="1" parent="1">
                    <mxGeometry x="160" y="240" width="120" height="40" as="geometry"/>
                </mxCell>
                <mxCell id="56" value="2011" style="shape=ext;double=1;rounded=0;whiteSpace=wrap;html=1;shadow=0;sketch=0;fillColor=#f5f5f5;strokeColor=#666666;fontColor=#333333;" vertex="1" parent="1">
                    <mxGeometry x="160" y="160" width="320" height="30" as="geometry"/>
                </mxCell>
                <mxCell id="59" value="Ember.js" style="html=1;whiteSpace=wrap;shape=isoCube2;backgroundOutline=1;isoAngle=15;shadow=0;sketch=0;fillColor=#f5f5f5;strokeColor=#666666;fontColor=#333333;" vertex="1" parent="1">
                    <mxGeometry x="290" y="220" width="60" height="70" as="geometry"/>
                </mxCell>
                <mxCell id="62" value="JAMStack" style="ellipse;shape=cloud;whiteSpace=wrap;html=1;shadow=0;sketch=0;fillColor=#f5f5f5;align=center;strokeColor=#666666;fontColor=#333333;" vertex="1" parent="1">
                    <mxGeometry x="390" y="1160" width="80" height="40" as="geometry"/>
                </mxCell>
                <mxCell id="63" value="Browser" style="rounded=0;whiteSpace=wrap;html=1;shadow=0;sketch=0;fillColor=#f5f5f5;strokeColor=#666666;fontColor=#333333;" vertex="1" parent="1">
                    <mxGeometry x="160" y="1040" width="120" height="40" as="geometry"/>
                </mxCell>
                <mxCell id="64" value="2016" style="shape=ext;double=1;rounded=0;whiteSpace=wrap;html=1;shadow=0;sketch=0;fillColor=#f5f5f5;strokeColor=#666666;fontColor=#333333;" vertex="1" parent="1">
                    <mxGeometry x="160" y="960" width="320" height="30" as="geometry"/>
                </mxCell>
                <mxCell id="68" value="PWA" style="html=1;whiteSpace=wrap;shape=isoCube2;backgroundOutline=1;isoAngle=15;shadow=0;sketch=0;fillColor=#f5f5f5;strokeColor=#666666;fontColor=#333333;" vertex="1" parent="1">
                    <mxGeometry x="360" y="1025" width="60" height="70" as="geometry"/>
                </mxCell>
                <mxCell id="69" value="AMP" style="html=1;whiteSpace=wrap;shape=isoCube2;backgroundOutline=1;isoAngle=15;shadow=0;sketch=0;fillColor=#f5f5f5;strokeColor=#666666;fontColor=#333333;" vertex="1" parent="1">
                    <mxGeometry x="430" y="1025" width="60" height="70" as="geometry"/>
                </mxCell>
                <mxCell id="70" value="App Shell" style="ellipse;shape=cloud;whiteSpace=wrap;html=1;shadow=0;sketch=0;fillColor=#f5f5f5;align=center;strokeColor=#666666;fontColor=#333333;" vertex="1" parent="1">
                    <mxGeometry x="385" y="1000" width="80" height="40" as="geometry"/>
                </mxCell>
                <mxCell id="71" value="Hugo" style="html=1;whiteSpace=wrap;shape=isoCube2;backgroundOutline=1;isoAngle=15;shadow=0;sketch=0;fillColor=#f5f5f5;strokeColor=#666666;fontColor=#333333;" vertex="1" parent="1">
                    <mxGeometry x="430" y="530" width="60" height="70" as="geometry"/>
                </mxCell>
            </root>
        </mxGraphModel>
    </diagram>
</mxfile>